<?xml version="1.0" standalone="no"?>
<!DOCTYPE svg PUBLIC "-//W3C//DTD SVG 20010904//EN"
 "http://www.w3.org/TR/2001/REC-SVG-20010904/DTD/svg10.dtd">
<svg version="1.0" xmlns="http://www.w3.org/2000/svg"
 width="200.000000pt" height="200.000000pt" viewBox="0 0 200.000000 200.000000"
 preserveAspectRatio="xMidYMid meet">
<metadata>
Created by potrace 1.14, written by Peter Selinger 2001-2017
</metadata>
<g transform="translate(0.000000,200.000000) scale(0.100000,-0.100000)"
fill="#000000" stroke="none">
<path d="M1092 1509 c-60 -39 -78 -108 -46 -172 9 -18 60 -76 112 -129 l96
-98 -483 0 c-473 0 -484 0 -512 -21 -60 -42 -75 -115 -38 -176 40 -64 28 -63
556 -63 l478 0 -96 -97 c-115 -117 -129 -137 -129 -181 0 -57 28 -102 77 -124
83 -37 93 -31 332 206 117 116 226 229 242 250 32 44 38 91 15 134 -18 32
-452 465 -483 481 -34 17 -85 13 -121 -10z"/>
</g>
</svg>
